<svg id="mermaid-svg" width="100%" xmlns="http://www.w3.org/2000/svg" viewBox="0 0 585.484375 450" style="max-width: 585.484375px;" role="graphics-document document" aria-roledescription="pie" xmlns:xlink="http://www.w3.org/1999/xlink"><style xmlns="http://www.w3.org/1999/xhtml">@import url("https://cdnjs.cloudflare.com/ajax/libs/font-awesome/6.7.1/css/all.min.css");</style><style>#mermaid-svg{font-family:"trebuchet ms",verdana,arial,sans-serif;font-size:16px;fill:#333;}#mermaid-svg .error-icon{fill:#552222;}#mermaid-svg .error-text{fill:#552222;stroke:#552222;}#mermaid-svg .edge-thickness-normal{stroke-width:1px;}#mermaid-svg .edge-thickness-thick{stroke-width:3.5px;}#mermaid-svg .edge-pattern-solid{stroke-dasharray:0;}#mermaid-svg .edge-thickness-invisible{stroke-width:0;fill:none;}#mermaid-svg .edge-pattern-dashed{stroke-dasharray:3;}#mermaid-svg .edge-pattern-dotted{stroke-dasharray:2;}#mermaid-svg .marker{fill:#333333;stroke:#333333;}#mermaid-svg .marker.cross{stroke:#333333;}#mermaid-svg svg{font-family:"trebuchet ms",verdana,arial,sans-serif;font-size:16px;}#mermaid-svg p{margin:0;}#mermaid-svg .pieCircle{stroke:black;stroke-width:2px;opacity:0.7;}#mermaid-svg .pieOuterCircle{stroke:black;stroke-width:2px;fill:none;}#mermaid-svg .pieTitleText{text-anchor:middle;font-size:25px;fill:black;font-family:"trebuchet ms",verdana,arial,sans-serif;}#mermaid-svg .slice{font-family:"trebuchet ms",verdana,arial,sans-serif;fill:#333;font-size:17px;}#mermaid-svg .legend text{fill:black;font-family:"trebuchet ms",verdana,arial,sans-serif;font-size:17px;}#mermaid-svg :root{--mermaid-font-family:"trebuchet ms",verdana,arial,sans-serif;}</style><g/><g transform="translate(225,225)"><circle cx="0" cy="0" r="186" class="pieOuterCircle"/><path d="M0,-185A185,185,0,0,1,94.758,158.89L0,0Z" fill="#ECECFF" class="pieCircle"/><path d="M94.758,158.89A185,185,0,0,1,-180.472,40.68L0,0Z" fill="#ffffde" class="pieCircle"/><path d="M-180.472,40.68A185,185,0,0,1,-169.639,-73.809L0,0Z" fill="hsl(80, 100%, 56.2745098039%)" class="pieCircle"/><path d="M-169.639,-73.809A185,185,0,0,1,-128.009,-133.562L0,0Z" fill="hsl(240, 100%, 86.2745098039%)" class="pieCircle"/><path d="M-128.009,-133.562A185,185,0,0,1,-71.401,-170.666L0,0Z" fill="hsl(60, 100%, 63.5294117647%)" class="pieCircle"/><path d="M-71.401,-170.666A185,185,0,0,1,-26.093,-183.151L0,0Z" fill="hsl(80, 100%, 76.2745098039%)" class="pieCircle"/><path d="M-26.093,-183.151A185,185,0,0,1,0,-185L0,0Z" fill="hsl(300, 100%, 76.2745098039%)" class="pieCircle"/><text transform="translate(133.7647606207409,-36.858531116634104)" class="slice" style="text-anchor: middle;">41%</text><text transform="translate(-54.755676006484876,127.48873850294721)" class="slice" style="text-anchor: middle;">30%</text><text transform="translate(-138.1329900990111,-13.070560290458113)" class="slice" style="text-anchor: middle;">10%</text><text transform="translate(-113.84473229610843,-79.31544255961387)" class="slice" style="text-anchor: middle;">6%</text><text transform="translate(-76.06200136670346,-116.04367474400146)" class="slice" style="text-anchor: middle;">6%</text><text transform="translate(-36.85853111663419,-133.76476062074087)" class="slice" style="text-anchor: middle;">4%</text><text transform="translate(-9.809287234214306,-138.40281927748683)" class="slice" style="text-anchor: middle;">2%</text><text x="0" y="-200" class="pieTitleText">Election for the European Parliament in 2004.</text><g class="legend" transform="translate(216,-77)"><rect width="18" height="18" style="fill: rgb(236, 236, 255); stroke: rgb(236, 236, 255);"/><text x="22" y="14">EPP [276]</text></g><g class="legend" transform="translate(216,-55)"><rect width="18" height="18" style="fill: rgb(255, 255, 222); stroke: rgb(255, 255, 222);"/><text x="22" y="14">PES [200]</text></g><g class="legend" transform="translate(216,-33)"><rect width="18" height="18" style="fill: rgb(181, 255, 32); stroke: rgb(181, 255, 32);"/><text x="22" y="14">ELDR [67]</text></g><g class="legend" transform="translate(216,-11)"><rect width="18" height="18" style="fill: rgb(185, 185, 255); stroke: rgb(185, 185, 255);"/><text x="22" y="14">EFA [42]</text></g><g class="legend" transform="translate(216,11)"><rect width="18" height="18" style="fill: rgb(255, 255, 69); stroke: rgb(255, 255, 69);"/><text x="22" y="14">EUL [39]</text></g><g class="legend" transform="translate(216,33)"><rect width="18" height="18" style="fill: rgb(215, 255, 134); stroke: rgb(215, 255, 134);"/><text x="22" y="14">UEN [27]</text></g><g class="legend" transform="translate(216,55)"><rect width="18" height="18" style="fill: rgb(255, 134, 255); stroke: rgb(255, 134, 255);"/><text x="22" y="14">EDD [15]</text></g></g></svg>